<svg width="260" height="181" viewBox="0 0 260 181" fill="none" xmlns="http://www.w3.org/2000/svg">
<path d="M39.7805 21.25H221.224C226.685 21.25 231.112 25.6838 231.112 31.1393V153.67H29.8867V31.1393C29.8867 25.6775 34.3197 21.25 39.7805 21.25Z" fill="#292D32"/>
<path d="M37.3367 21.25H218.78C224.241 21.25 228.668 25.6838 228.668 31.1393V153.67H27.4492V31.1393C27.4492 25.6775 31.8822 21.25 37.3367 21.25Z" fill="#899098" stroke="#292D32" stroke-width="0.75" stroke-linecap="round" stroke-linejoin="round"/>
<rect x="32.9883" y="26.0557" width="191.066" height="122.354" rx="10" fill="white"/>
<rect x="38.1797" y="31.3408" width="47.2951" height="110.371" rx="10" fill="#A3A3A3"/>
<rect x="89.9023" y="31.3408" width="128.643" height="110.371" rx="10" fill="#A3A3A3"/>
<path d="M229.1 164.184H12.5016C8.63617 164.184 5.33823 161.39 4.69504 157.581L4.34191 155.481C4.18427 154.534 4.90944 153.677 5.86792 153.677H235.728C236.686 153.677 237.418 154.541 237.254 155.481L236.9 157.581C236.257 161.39 232.959 164.184 229.094 164.184H229.1Z" fill="#292D32"/>
<path d="M225.148 164.184H8.55632C4.69086 164.184 1.39292 161.39 0.749726 157.581L0.3966 155.481C0.238955 154.534 0.964123 153.677 1.92261 153.677H231.776C232.734 153.677 233.466 154.541 233.302 155.481L232.949 157.581C232.306 161.39 229.008 164.184 225.142 164.184H225.148Z" fill="#CCEBA4" stroke="#292D32" stroke-width="0.75" stroke-linecap="round" stroke-linejoin="round"/>
<rect x="87.8008" y="28.5625" width="127.893" height="109.621" rx="9.625" fill="white" stroke="#292D32" stroke-width="0.75"/>
<path d="M108.978 32.8906H92.692C91.7144 32.8906 90.9219 33.6801 90.9219 34.6539C90.9219 35.6278 91.7144 36.4172 92.692 36.4172H108.978C109.956 36.4172 110.749 35.6278 110.749 34.6539C110.749 33.6801 109.956 32.8906 108.978 32.8906Z" fill="#292D32"/>
<path d="M209.301 32.8906H193.014C192.037 32.8906 191.244 33.6801 191.244 34.6539C191.244 35.6278 192.037 36.4172 193.014 36.4172H209.301C210.278 36.4172 211.071 35.6278 211.071 34.6539C211.071 33.6801 210.278 32.8906 209.301 32.8906Z" fill="#292D32"/>
<rect x="91.2266" y="40.8018" width="119.814" height="18.2901" rx="5" fill="#CCEBA4"/>
<rect x="95" y="44.5859" width="105.31" height="1.26139" rx="0.630693" fill="#9AD84A"/>
<rect x="95" y="48.3701" width="105.31" height="1.26139" rx="0.630693" fill="#9AD84A"/>
<rect x="95" y="52.1543" width="57.3847" height="1.26139" rx="0.630693" fill="#9AD84A"/>
<rect x="91.2266" y="64.1367" width="119.814" height="6.30693" rx="2" fill="#EBFFD0"/>
<rect x="99.3984" y="66.6592" width="105.31" height="0.946039" rx="0.473019" fill="#9AD84A"/>
<rect x="95" y="65.3984" width="3.15301" height="3.15346" rx="1.5765" fill="#9AD84A"/>
<rect x="91.2266" y="72.3359" width="119.814" height="6.30693" rx="2" fill="#EBFFD0"/>
<rect x="99.3984" y="74.8584" width="105.31" height="0.946039" rx="0.473019" fill="#9AD84A"/>
<rect x="95" y="73.5977" width="3.15301" height="3.15346" rx="1.5765" fill="#9AD84A"/>
<rect x="91.2266" y="80.5352" width="119.814" height="6.30693" rx="2" fill="#EBFFD0"/>
<rect x="99.3984" y="83.0576" width="105.31" height="0.946039" rx="0.473019" fill="#9AD84A"/>
<rect x="95" y="81.7969" width="3.15301" height="3.15346" rx="1.5765" fill="#9AD84A"/>
<rect x="91.2266" y="88.7344" width="119.814" height="6.30693" rx="2" fill="#EBFFD0"/>
<rect x="99.3984" y="91.2568" width="105.31" height="0.946039" rx="0.473019" fill="#9AD84A"/>
<rect x="95" y="89.9961" width="3.15301" height="3.15346" rx="1.5765" fill="#9AD84A"/>
<rect x="36.1094" y="28.5625" width="46.5451" height="109.621" rx="9.625" fill="white" stroke="#292D32" stroke-width="0.75"/>
<path d="M57.2793 32.8906H40.9928C40.0152 32.8906 39.2227 33.6801 39.2227 34.6539C39.2227 35.6278 40.0152 36.4172 40.9928 36.4172H57.2793C58.2569 36.4172 59.0494 35.6278 59.0494 34.6539C59.0494 33.6801 58.2569 32.8906 57.2793 32.8906Z" fill="#292D32"/>
<path d="M48.4302 40.8018H39.9898C39.7085 40.8018 39.4805 41.0438 39.4805 41.3423V49.7216C39.4805 50.0201 39.7085 50.2621 39.9898 50.2621H48.4302C48.7115 50.2621 48.9395 50.0201 48.9395 49.7216V41.3423C48.9395 41.0438 48.7115 40.8018 48.4302 40.8018Z" fill="#CCEBA4"/>
<path d="M59.7153 40.8018H51.2749C50.9937 40.8018 50.7656 41.0438 50.7656 41.3423V49.7216C50.7656 50.0201 50.9937 50.2621 51.2749 50.2621H59.7153C59.9966 50.2621 60.2246 50.0201 60.2246 49.7216V41.3423C60.2246 41.0438 59.9966 40.8018 59.7153 40.8018Z" fill="#CCEBA4"/>
<path d="M71.0942 40.8018H62.6538C62.3726 40.8018 62.1445 41.0438 62.1445 41.3423V49.7216C62.1445 50.0201 62.3726 50.2621 62.6538 50.2621H71.0942C71.3755 50.2621 71.6036 50.0201 71.6036 49.7216V41.3423C71.6036 41.0438 71.3755 40.8018 71.0942 40.8018Z" fill="#CCEBA4"/>
<path d="M48.4302 52.7842H39.9898C39.7085 52.7842 39.4805 53.0262 39.4805 53.3247V61.704C39.4805 62.0026 39.7085 62.2446 39.9898 62.2446H48.4302C48.7115 62.2446 48.9395 62.0026 48.9395 61.704V53.3247C48.9395 53.0262 48.7115 52.7842 48.4302 52.7842Z" fill="#CCEBA4"/>
<path d="M59.7153 52.7842H51.2749C50.9937 52.7842 50.7656 53.0262 50.7656 53.3247V61.704C50.7656 62.0026 50.9937 62.2446 51.2749 62.2446H59.7153C59.9966 62.2446 60.2246 62.0026 60.2246 61.704V53.3247C60.2246 53.0262 59.9966 52.7842 59.7153 52.7842Z" fill="#CCEBA4"/>
<path d="M71.0942 52.7842H62.6538C62.3726 52.7842 62.1445 53.0262 62.1445 53.3247V61.704C62.1445 62.0026 62.3726 62.2446 62.6538 62.2446H71.0942C71.3755 62.2446 71.6036 62.0026 71.6036 61.704V53.3247C71.6036 53.0262 71.3755 52.7842 71.0942 52.7842Z" fill="#CCEBA4"/>
<path d="M48.4302 64.7676H39.9898C39.7085 64.7676 39.4805 65.0096 39.4805 65.3081V73.6874C39.4805 73.986 39.7085 74.228 39.9898 74.228H48.4302C48.7115 74.228 48.9395 73.986 48.9395 73.6874V65.3081C48.9395 65.0096 48.7115 64.7676 48.4302 64.7676Z" fill="#CCEBA4"/>
<path d="M59.7153 64.7676H51.2749C50.9937 64.7676 50.7656 65.0096 50.7656 65.3081V73.6874C50.7656 73.986 50.9937 74.228 51.2749 74.228H59.7153C59.9966 74.228 60.2246 73.986 60.2246 73.6874V65.3081C60.2246 65.0096 59.9966 64.7676 59.7153 64.7676Z" fill="#CCEBA4"/>
<path d="M71.0942 64.7676H62.6538C62.3726 64.7676 62.1445 65.0096 62.1445 65.3081V73.6874C62.1445 73.986 62.3726 74.228 62.6538 74.228H71.0942C71.3755 74.228 71.6036 73.986 71.6036 73.6874V65.3081C71.6036 65.0096 71.3755 64.7676 71.0942 64.7676Z" fill="#CCEBA4"/>
<path d="M48.4302 76.751H39.9898C39.7085 76.751 39.4805 76.993 39.4805 77.2915V85.6708C39.4805 85.9694 39.7085 86.2114 39.9898 86.2114H48.4302C48.7115 86.2114 48.9395 85.9694 48.9395 85.6708V77.2915C48.9395 76.993 48.7115 76.751 48.4302 76.751Z" fill="#CCEBA4"/>
<path d="M59.7153 76.751H51.2749C50.9937 76.751 50.7656 76.993 50.7656 77.2915V85.6708C50.7656 85.9694 50.9937 86.2114 51.2749 86.2114H59.7153C59.9966 86.2114 60.2246 85.9694 60.2246 85.6708V77.2915C60.2246 76.993 59.9966 76.751 59.7153 76.751Z" fill="#CCEBA4"/>
<path d="M71.0942 76.751H62.6538C62.3726 76.751 62.1445 76.993 62.1445 77.2915V85.6708C62.1445 85.9694 62.3726 86.2114 62.6538 86.2114H71.0942C71.3755 86.2114 71.6036 85.9694 71.6036 85.6708V77.2915C71.6036 76.993 71.3755 76.751 71.0942 76.751Z" fill="#CCEBA4"/>
<path d="M48.4302 88.7344H39.9898C39.7085 88.7344 39.4805 88.9764 39.4805 89.2749V97.6542C39.4805 97.9528 39.7085 98.1948 39.9898 98.1948H48.4302C48.7115 98.1948 48.9395 97.9528 48.9395 97.6542V89.2749C48.9395 88.9764 48.7115 88.7344 48.4302 88.7344Z" fill="#CCEBA4"/>
<path d="M59.7153 88.7344H51.2749C50.9937 88.7344 50.7656 88.9764 50.7656 89.2749V97.6542C50.7656 97.9528 50.9937 98.1948 51.2749 98.1948H59.7153C59.9966 98.1948 60.2246 97.9528 60.2246 97.6542V89.2749C60.2246 88.9764 59.9966 88.7344 59.7153 88.7344Z" fill="#CCEBA4"/>
<path d="M85.4141 153.689H131.492V154.137C131.492 156.351 129.695 158.148 127.481 158.148H89.431C87.2176 158.148 85.4204 156.351 85.4204 154.137V153.689H85.4141Z" fill="#FBF9ED" stroke="#292D32" stroke-width="0.75" stroke-miterlimit="10"/>
<circle cx="234.498" cy="155.25" r="25" fill="#292D32"/>
<circle cx="232.498" cy="155.25" r="24.5" fill="#CCEBA4" stroke="#292D32"/>
<path d="M227.436 150.25C227.436 147.489 229.674 145.25 232.436 145.25C235.197 145.25 237.436 147.489 237.436 150.25C237.436 151.964 236.573 153.476 235.259 154.377C233.892 155.314 232.436 156.593 232.436 158.25" stroke="#292D32" stroke-width="3" stroke-linecap="round" stroke-linejoin="round"/>
<path d="M232.686 164.75H232.436M232.936 164.75C232.936 165.026 232.712 165.25 232.436 165.25C232.159 165.25 231.936 165.026 231.936 164.75C231.936 164.474 232.159 164.25 232.436 164.25C232.712 164.25 232.936 164.474 232.936 164.75Z" stroke="#292D32" stroke-width="3" stroke-linecap="round" stroke-linejoin="round"/>
<path d="M37.502 0.75H101.856L102.271 0.760742C106.539 0.977426 109.936 4.51484 109.936 8.84766V19.3047C109.935 23.7769 106.317 27.4022 101.856 27.4023H52.7471C52.1158 27.4024 51.5269 27.7188 51.1768 28.2412L51.1104 28.3486L48.2764 33.2686L48.2754 33.2695C47.8318 34.0457 46.7143 34.0491 46.2646 33.2686L43.4307 28.3486C43.0953 27.76 42.469 27.4024 41.7939 27.4023H37.502C33.0416 27.4023 29.4221 23.777 29.4219 19.3047V8.84766C29.4219 4.3752 33.0415 0.75 37.502 0.75Z" fill="#CCEBA4" stroke="#CCEBA4"/>
<path d="M99.3995 0.25H29.9899C25.2673 0.25 21.4375 4.1001 21.4375 8.84774V19.3043C21.4375 24.0519 25.2673 27.902 29.9899 27.902H39.5181C40.0157 27.902 40.4743 28.1669 40.7182 28.5985L43.543 33.5178C44.1821 34.6311 45.7775 34.6311 46.4117 33.5178L49.2365 28.5985C49.4853 28.1669 49.9439 27.902 50.4366 27.902H99.3898C104.112 27.902 107.942 24.0519 107.942 19.3043V8.84774C107.942 4.1001 104.112 0.25 99.3898 0.25H99.3995Z" fill="white" stroke="#292D32" stroke-width="0.5" stroke-linecap="round" stroke-linejoin="round"/>
<path d="M29.9453 14.457L29.9023 13.2773H30.0859L32.4141 10.6133H33.4531L31.1953 13.1484L30.7305 13.5664L29.9453 14.457ZM29.1445 16.25V10.6133H30.0195V16.25H29.1445ZM32.543 16.25L30.5859 13.5586L31.2031 12.9648L33.6367 16.25H32.543ZM35.9297 16.332C35.5156 16.332 35.1602 16.2435 34.8633 16.0664C34.5664 15.8867 34.3372 15.6328 34.1758 15.3047C34.0169 14.9766 33.9375 14.5885 33.9375 14.1406V14.1367C33.9375 13.694 34.0169 13.3073 34.1758 12.9766C34.3372 12.6458 34.5638 12.388 34.8555 12.2031C35.1497 12.0182 35.4935 11.9258 35.8867 11.9258C36.2826 11.9258 36.6224 12.0143 36.9062 12.1914C37.1927 12.3685 37.4128 12.6172 37.5664 12.9375C37.7201 13.2552 37.7969 13.6276 37.7969 14.0547V14.3516H34.3672V13.7461H37.375L36.9688 14.3086V13.9688C36.9688 13.6667 36.9219 13.4167 36.8281 13.2188C36.737 13.0182 36.6107 12.8685 36.4492 12.7695C36.2878 12.6706 36.1016 12.6211 35.8906 12.6211C35.6797 12.6211 35.4909 12.6732 35.3242 12.7773C35.1602 12.8789 35.0299 13.0299 34.9336 13.2305C34.8398 13.431 34.793 13.6771 34.793 13.9688V14.3086C34.793 14.5872 34.8398 14.8255 34.9336 15.0234C35.0273 15.2214 35.1602 15.3724 35.332 15.4766C35.5065 15.5807 35.7122 15.6328 35.9492 15.6328C36.1315 15.6328 36.2878 15.6081 36.418 15.5586C36.5508 15.5065 36.6589 15.4427 36.7422 15.3672C36.8281 15.2917 36.8867 15.2174 36.918 15.1445L36.9336 15.1133H37.7539L37.7461 15.1484C37.7096 15.2891 37.6458 15.4297 37.5547 15.5703C37.4635 15.7083 37.3424 15.8346 37.1914 15.9492C37.043 16.0638 36.8633 16.1562 36.6523 16.2266C36.444 16.2969 36.2031 16.332 35.9297 16.332ZM40.5859 16.332C40.1719 16.332 39.8164 16.2435 39.5195 16.0664C39.2227 15.8867 38.9935 15.6328 38.832 15.3047C38.6732 14.9766 38.5938 14.5885 38.5938 14.1406V14.1367C38.5938 13.694 38.6732 13.3073 38.832 12.9766C38.9935 12.6458 39.2201 12.388 39.5117 12.2031C39.806 12.0182 40.1497 11.9258 40.543 11.9258C40.9388 11.9258 41.2786 12.0143 41.5625 12.1914C41.849 12.3685 42.069 12.6172 42.2227 12.9375C42.3763 13.2552 42.4531 13.6276 42.4531 14.0547V14.3516H39.0234V13.7461H42.0312L41.625 14.3086V13.9688C41.625 13.6667 41.5781 13.4167 41.4844 13.2188C41.3932 13.0182 41.2669 12.8685 41.1055 12.7695C40.944 12.6706 40.7578 12.6211 40.5469 12.6211C40.3359 12.6211 40.1471 12.6732 39.9805 12.7773C39.8164 12.8789 39.6862 13.0299 39.5898 13.2305C39.4961 13.431 39.4492 13.6771 39.4492 13.9688V14.3086C39.4492 14.5872 39.4961 14.8255 39.5898 15.0234C39.6836 15.2214 39.8164 15.3724 39.9883 15.4766C40.1628 15.5807 40.3685 15.6328 40.6055 15.6328C40.7878 15.6328 40.944 15.6081 41.0742 15.5586C41.207 15.5065 41.3151 15.4427 41.3984 15.3672C41.4844 15.2917 41.543 15.2174 41.5742 15.1445L41.5898 15.1133H42.4102L42.4023 15.1484C42.3659 15.2891 42.3021 15.4297 42.2109 15.5703C42.1198 15.7083 41.9987 15.8346 41.8477 15.9492C41.6992 16.0638 41.5195 16.1562 41.3086 16.2266C41.1003 16.2969 40.8594 16.332 40.5859 16.332ZM43.4609 17.6641V12.0078H44.3086V12.6758H44.375C44.4557 12.5195 44.5599 12.3867 44.6875 12.2773C44.8177 12.168 44.9661 12.0833 45.1328 12.0234C45.2995 11.9635 45.4818 11.9336 45.6797 11.9336C46.0365 11.9336 46.3464 12.0247 46.6094 12.207C46.8724 12.3867 47.0755 12.6406 47.2188 12.9688C47.3646 13.2943 47.4375 13.6797 47.4375 14.125V14.1328C47.4375 14.5807 47.3659 14.9688 47.2227 15.2969C47.0794 15.6224 46.8763 15.875 46.6133 16.0547C46.3503 16.2318 46.0391 16.3203 45.6797 16.3203C45.4844 16.3203 45.3021 16.2904 45.1328 16.2305C44.9635 16.168 44.8138 16.082 44.6836 15.9727C44.5534 15.8633 44.4505 15.7318 44.375 15.5781H44.3086V17.6641H43.4609ZM45.4375 15.5938C45.6745 15.5938 45.8776 15.5352 46.0469 15.418C46.2161 15.3008 46.3451 15.1328 46.4336 14.9141C46.5247 14.6953 46.5703 14.4349 46.5703 14.1328V14.125C46.5703 13.8203 46.5247 13.5586 46.4336 13.3398C46.3451 13.1211 46.2161 12.9531 46.0469 12.8359C45.8776 12.7188 45.6745 12.6602 45.4375 12.6602C45.2031 12.6602 45 12.7201 44.8281 12.8398C44.6562 12.957 44.5247 13.125 44.4336 13.3438C44.3424 13.5599 44.2969 13.8203 44.2969 14.125V14.1328C44.2969 14.4323 44.3424 14.6914 44.4336 14.9102C44.5247 15.1289 44.6562 15.2982 44.8281 15.418C45 15.5352 45.2031 15.5938 45.4375 15.5938ZM52.4258 17.7461C52.0664 17.7461 51.7539 17.6966 51.4883 17.5977C51.2253 17.4987 51.0169 17.3607 50.8633 17.1836C50.7096 17.0065 50.6159 16.8008 50.582 16.5664L50.5859 16.5586H51.4453L51.4492 16.5664C51.4857 16.7122 51.5885 16.832 51.7578 16.9258C51.9271 17.0195 52.1536 17.0664 52.4375 17.0664C52.7865 17.0664 53.0586 16.987 53.2539 16.8281C53.4518 16.6693 53.5508 16.4466 53.5508 16.1602V15.3281H53.4844C53.401 15.4792 53.2943 15.6094 53.1641 15.7188C53.0339 15.8255 52.8854 15.9062 52.7188 15.9609C52.5521 16.0156 52.3711 16.043 52.1758 16.043C51.8164 16.043 51.5039 15.957 51.2383 15.7852C50.9753 15.6107 50.7721 15.3711 50.6289 15.0664C50.4883 14.7591 50.418 14.4062 50.418 14.0078V14C50.418 13.5964 50.4896 13.2396 50.6328 12.9297C50.776 12.6172 50.9805 12.3737 51.2461 12.1992C51.5117 12.0221 51.8281 11.9336 52.1953 11.9336C52.3932 11.9336 52.5742 11.9648 52.7383 12.0273C52.9049 12.0898 53.0521 12.1784 53.1797 12.293C53.3073 12.4076 53.4128 12.5443 53.4961 12.7031H53.5469V12.0078H54.3945V16.1641C54.3945 16.4844 54.3138 16.763 54.1523 17C53.9935 17.237 53.7669 17.4206 53.4727 17.5508C53.1784 17.681 52.8294 17.7461 52.4258 17.7461ZM52.4141 15.3398C52.6536 15.3398 52.8594 15.2839 53.0312 15.1719C53.2031 15.0573 53.3346 14.8997 53.4258 14.6992C53.5195 14.4987 53.5664 14.2669 53.5664 14.0039V13.9961C53.5664 13.7357 53.5195 13.5039 53.4258 13.3008C53.3346 13.0977 53.2031 12.9388 53.0312 12.8242C52.8594 12.7096 52.6536 12.6523 52.4141 12.6523C52.1745 12.6523 51.9701 12.7096 51.8008 12.8242C51.6341 12.9388 51.5065 13.0977 51.418 13.3008C51.3294 13.5013 51.2852 13.7331 51.2852 13.9961V14.0039C51.2852 14.2669 51.3294 14.4987 51.418 14.6992C51.5065 14.8997 51.6341 15.0573 51.8008 15.1719C51.9701 15.2839 52.1745 15.3398 52.4141 15.3398ZM57.4141 16.332C57 16.332 56.6419 16.2435 56.3398 16.0664C56.0404 15.8893 55.8099 15.6367 55.6484 15.3086C55.487 14.9779 55.4062 14.5859 55.4062 14.1328V14.125C55.4062 13.6693 55.487 13.2773 55.6484 12.9492C55.8125 12.6211 56.0443 12.3685 56.3438 12.1914C56.6458 12.0143 57.0026 11.9258 57.4141 11.9258C57.8281 11.9258 58.1849 12.0143 58.4844 12.1914C58.7839 12.3659 59.0143 12.6185 59.1758 12.9492C59.3398 13.2773 59.4219 13.6693 59.4219 14.125V14.1328C59.4219 14.5859 59.3398 14.9779 59.1758 15.3086C59.0143 15.6367 58.7839 15.8893 58.4844 16.0664C58.1875 16.2435 57.8307 16.332 57.4141 16.332ZM57.4141 15.6211C57.6562 15.6211 57.862 15.5625 58.0312 15.4453C58.2005 15.3255 58.3294 15.1549 58.418 14.9336C58.5065 14.7122 58.5508 14.4453 58.5508 14.1328V14.125C58.5508 13.8099 58.5065 13.5417 58.418 13.3203C58.3294 13.099 58.2005 12.9297 58.0312 12.8125C57.862 12.6927 57.6562 12.6328 57.4141 12.6328C57.1719 12.6328 56.9661 12.6927 56.7969 12.8125C56.6276 12.9297 56.4974 13.099 56.4062 13.3203C56.3177 13.5417 56.2734 13.8099 56.2734 14.125V14.1328C56.2734 14.4453 56.3177 14.7122 56.4062 14.9336C56.4974 15.1549 56.6276 15.3255 56.7969 15.4453C56.9661 15.5625 57.1719 15.6211 57.4141 15.6211ZM60.4414 16.25V12.0078H61.293V16.25H60.4414ZM60.8711 11.25C60.7253 11.25 60.6003 11.1979 60.4961 11.0938C60.3919 10.9896 60.3398 10.8646 60.3398 10.7188C60.3398 10.5729 60.3919 10.4492 60.4961 10.3477C60.6003 10.2435 60.7253 10.1914 60.8711 10.1914C61.0169 10.1914 61.1419 10.2435 61.2461 10.3477C61.3503 10.4492 61.4023 10.5729 61.4023 10.7188C61.4023 10.8646 61.3503 10.9896 61.2461 11.0938C61.1419 11.1979 61.0169 11.25 60.8711 11.25ZM62.5234 16.25V12.0078H63.3711V12.6484H63.4375C63.5417 12.4219 63.6953 12.2448 63.8984 12.1172C64.1016 11.9896 64.3581 11.9258 64.668 11.9258C65.1445 11.9258 65.5091 12.0625 65.7617 12.3359C66.0143 12.6094 66.1406 12.9987 66.1406 13.5039V16.25H65.2891V13.7031C65.2891 13.349 65.2148 13.0859 65.0664 12.9141C64.9206 12.7396 64.6914 12.6523 64.3789 12.6523C64.1732 12.6523 63.9948 12.6979 63.8438 12.7891C63.6927 12.8776 63.5755 13.0052 63.4922 13.1719C63.4115 13.3359 63.3711 13.5326 63.3711 13.7617V16.25H62.5234ZM69.1133 17.7461C68.7539 17.7461 68.4414 17.6966 68.1758 17.5977C67.9128 17.4987 67.7044 17.3607 67.5508 17.1836C67.3971 17.0065 67.3034 16.8008 67.2695 16.5664L67.2734 16.5586H68.1328L68.1367 16.5664C68.1732 16.7122 68.276 16.832 68.4453 16.9258C68.6146 17.0195 68.8411 17.0664 69.125 17.0664C69.474 17.0664 69.7461 16.987 69.9414 16.8281C70.1393 16.6693 70.2383 16.4466 70.2383 16.1602V15.3281H70.1719C70.0885 15.4792 69.9818 15.6094 69.8516 15.7188C69.7214 15.8255 69.5729 15.9062 69.4062 15.9609C69.2396 16.0156 69.0586 16.043 68.8633 16.043C68.5039 16.043 68.1914 15.957 67.9258 15.7852C67.6628 15.6107 67.4596 15.3711 67.3164 15.0664C67.1758 14.7591 67.1055 14.4062 67.1055 14.0078V14C67.1055 13.5964 67.1771 13.2396 67.3203 12.9297C67.4635 12.6172 67.668 12.3737 67.9336 12.1992C68.1992 12.0221 68.5156 11.9336 68.8828 11.9336C69.0807 11.9336 69.2617 11.9648 69.4258 12.0273C69.5924 12.0898 69.7396 12.1784 69.8672 12.293C69.9948 12.4076 70.1003 12.5443 70.1836 12.7031H70.2344V12.0078H71.082V16.1641C71.082 16.4844 71.0013 16.763 70.8398 17C70.681 17.237 70.4544 17.4206 70.1602 17.5508C69.8659 17.681 69.5169 17.7461 69.1133 17.7461ZM69.1016 15.3398C69.3411 15.3398 69.5469 15.2839 69.7188 15.1719C69.8906 15.0573 70.0221 14.8997 70.1133 14.6992C70.207 14.4987 70.2539 14.2669 70.2539 14.0039V13.9961C70.2539 13.7357 70.207 13.5039 70.1133 13.3008C70.0221 13.0977 69.8906 12.9388 69.7188 12.8242C69.5469 12.7096 69.3411 12.6523 69.1016 12.6523C68.862 12.6523 68.6576 12.7096 68.4883 12.8242C68.3216 12.9388 68.194 13.0977 68.1055 13.3008C68.0169 13.5013 67.9727 13.7331 67.9727 13.9961V14.0039C67.9727 14.2669 68.0169 14.4987 68.1055 14.6992C68.194 14.8997 68.3216 15.0573 68.4883 15.1719C68.6576 15.2839 68.862 15.3398 69.1016 15.3398ZM72.6094 14.3828L72.5273 10.6094H73.4805L73.4023 14.3828H72.6094ZM73.0078 16.3359C72.8255 16.3359 72.6784 16.2826 72.5664 16.1758C72.457 16.069 72.4023 15.9284 72.4023 15.7539C72.4023 15.5768 72.457 15.4349 72.5664 15.3281C72.6784 15.2188 72.8255 15.1641 73.0078 15.1641C73.1875 15.1641 73.332 15.2188 73.4414 15.3281C73.5534 15.4349 73.6094 15.5768 73.6094 15.7539C73.6094 15.9284 73.5534 16.069 73.4414 16.1758C73.332 16.2826 73.1875 16.3359 73.0078 16.3359Z" fill="black"/>
</svg>
