<svg width="20" height="20" viewBox="0 0 20 20" fill="none" xmlns="http://www.w3.org/2000/svg">
<path d="M14.1654 9.99967C14.1654 12.3008 12.2999 14.1663 9.9987 14.1663C7.69751 14.1663 5.83203 12.3008 5.83203 9.99967C5.83203 7.69849 7.69751 5.83301 9.9987 5.83301" stroke="#010101" stroke-width="1.25" stroke-linecap="round"/>
<path d="M11.668 1.83369C11.1295 1.72438 10.5721 1.66699 10.0013 1.66699C5.39893 1.66699 1.66797 5.39795 1.66797 10.0003C1.66797 14.6027 5.39893 18.3337 10.0013 18.3337C14.6036 18.3337 18.3346 14.6027 18.3346 10.0003C18.3346 9.42958 18.2772 8.87216 18.168 8.33366" stroke="#010101" stroke-width="1.25" stroke-linecap="round"/>
<path d="M15.9875 1.96448L16.4485 3.62043L18.0188 4.00828C18.3001 4.08963 18.4128 4.42874 18.2259 4.65433C17.287 5.78811 16.0624 7.13703 13.9174 6.13673C12.8527 4.059 14.1564 2.74173 15.3531 1.76376C15.5744 1.58295 15.9026 1.69167 15.9875 1.96448Z" fill="#010101"/>
<path d="M10.0234 9.96866L13.8175 6.17458M16.4485 3.62043L15.9875 1.96448C15.9026 1.69167 15.5744 1.58295 15.3531 1.76376C14.1564 2.74173 12.8527 4.059 13.9174 6.13673C16.0624 7.13703 17.287 5.78811 18.2259 4.65433C18.4128 4.42874 18.3001 4.08963 18.0188 4.00828L16.4485 3.62043Z" stroke="#010101" stroke-width="1.25" stroke-linecap="round" stroke-linejoin="round"/>
</svg>
